<?xml version="1.0" standalone="no"?>
<!DOCTYPE svg PUBLIC "-//W3C//DTD SVG 20010904//EN"
 "http://www.w3.org/TR/2001/REC-SVG-20010904/DTD/svg10.dtd">
<svg version="1.0" xmlns="http://www.w3.org/2000/svg"
 width="500.000000pt" height="500.000000pt" viewBox="0 0 500.000000 500.000000"
 preserveAspectRatio="xMidYMid meet">

<g transform="translate(0.000000,500.000000) scale(0.100000,-0.100000)"
fill="#000000" stroke="none">
<path d="M2625 3502 c4 -21 0 -43 -15 -72 -26 -50 -24 -113 2 -118 15 -3 17 2
12 26 -4 19 1 43 16 71 26 52 24 114 -3 119 -16 3 -18 -1 -12 -26z"/>
<path d="M2257 3373 c-13 -12 -7 -23 12 -23 22 0 39 -19 66 -74 25 -51 65 -77
90 -56 14 12 13 15 -15 26 -21 9 -36 27 -49 57 -26 59 -79 95 -104 70z"/>
<path d="M2969 3330 c-8 -12 -36 -26 -68 -35 -59 -15 -91 -39 -91 -66 0 -28
16 -31 28 -4 8 17 22 26 49 30 57 9 100 31 108 55 10 32 -9 46 -26 20z"/>
<path d="M2620 3197 c0 -8 -12 -19 -26 -25 -21 -10 -25 -18 -22 -45 2 -22 10
-35 26 -42 15 -7 22 -18 22 -39 0 -26 -2 -28 -30 -22 -22 4 -30 2 -30 -8 0 -8
14 -17 30 -21 17 -4 30 -13 30 -21 0 -8 5 -14 10 -14 6 0 10 7 10 15 0 9 11
20 24 25 13 5 27 14 31 20 12 20 -5 61 -30 70 -36 14 -36 60 0 60 14 0 25 4
25 10 0 5 -11 12 -25 16 -14 3 -25 12 -25 20 0 8 -4 14 -10 14 -5 0 -10 -6
-10 -13z m0 -67 c0 -11 -4 -20 -10 -20 -5 0 -10 9 -10 20 0 11 5 20 10 20 6 0
10 -9 10 -20z m43 -76 c8 -8 -3 -34 -14 -34 -5 0 -9 9 -9 20 0 19 11 26 23 14z"/>
<path d="M2158 3088 c-17 -6 -28 -17 -28 -29 0 -16 3 -17 25 -7 19 9 38 8 81
-2 66 -16 107 -6 112 27 3 21 2 21 -26 8 -21 -11 -37 -12 -58 -6 -53 17 -79
19 -106 9z"/>
<path d="M2892 3084 c-30 -21 -31 -49 -1 -33 13 6 36 8 58 4 75 -14 133 -11
144 7 16 24 6 30 -30 16 -24 -9 -38 -8 -72 5 -51 21 -71 21 -99 1z"/>
<path d="M2392 2905 c-8 -16 -30 -34 -60 -47 -61 -26 -82 -46 -82 -74 0 -33
15 -37 28 -9 7 15 34 36 69 52 42 20 61 36 67 56 14 38 -6 57 -22 22z"/>
<path d="M2777 2863 c-13 -12 -7 -23 12 -23 22 0 33 -13 64 -71 25 -47 61 -68
93 -54 17 6 15 9 -14 21 -23 10 -38 27 -52 58 -25 58 -78 94 -103 69z"/>
<path d="M2621 2776 c9 -18 8 -33 -1 -58 -27 -76 -29 -85 -12 -84 9 0 25 18
34 40 29 62 22 126 -13 126 -16 0 -17 -3 -8 -24z"/>
<path d="M2262 2248 c3 -215 4 -223 23 -223 19 0 20 8 23 118 l3 117 34 0 c24
0 35 5 35 15 0 10 -11 15 -35 15 l-35 0 0 90 c0 90 0 90 -25 90 l-25 0 2 -222z"/>
<path d="M2984 2436 c-82 -36 -83 -120 -2 -162 39 -20 143 -21 191 0 76 31 80
119 6 156 -45 24 -147 26 -195 6z m184 -42 c17 -11 22 -23 20 -42 -9 -82 -218
-79 -218 3 0 26 26 51 60 58 38 8 112 -3 138 -19z"/>
<path d="M2040 2423 c-45 -23 -70 -73 -70 -141 0 -97 42 -157 110 -157 67 0
110 60 110 155 0 117 -70 183 -150 143z m65 -29 c62 -24 58 -209 -5 -229 -53
-17 -90 31 -90 115 0 86 40 135 95 114z"/>
<path d="M2472 2313 l3 -118 150 0 c135 0 150 2 153 18 3 15 -8 17 -132 17
l-136 0 0 35 0 35 125 0 c103 0 125 3 125 15 0 12 -23 15 -122 17 l-123 3 -3
33 -3 32 130 0 c110 0 131 2 131 15 0 13 -23 15 -150 15 l-151 0 3 -117z"/>
<path d="M2887 2214 c-4 -4 -7 -13 -7 -21 0 -10 22 -13 90 -13 l90 0 0 -80 c0
-73 2 -80 20 -80 18 0 20 7 20 80 l0 80 91 0 c81 0 90 2 87 18 -3 15 -22 17
-194 20 -105 1 -193 -1 -197 -4z"/>
<path d="M2420 2100 c0 -20 4 -20 203 -18 172 3 202 5 202 18 0 13 -30 15
-202 18 -199 2 -203 2 -203 -18z"/>
<path d="M2520 1956 c0 -42 -2 -46 -25 -46 -16 0 -25 -6 -25 -15 0 -9 9 -15
25 -15 24 0 25 -3 25 -60 0 -54 2 -60 20 -60 20 0 21 5 18 117 -3 103 -5 118
-20 121 -15 3 -18 -4 -18 -42z"/>
<path d="M2857 1993 c-2 -5 -4 -48 -3 -98 1 -77 3 -90 19 -93 15 -3 17 7 17
97 0 81 -3 101 -14 101 -8 0 -17 -3 -19 -7z"/>
<path d="M2300 1955 c0 -8 7 -15 15 -15 11 0 15 -12 15 -50 0 -43 -3 -50 -20
-50 -11 0 -20 -7 -20 -15 0 -17 59 -20 144 -9 45 7 65 24 26 24 -17 0 -20 7
-20 49 0 34 4 51 15 55 8 3 15 10 15 16 0 6 -33 10 -85 10 -69 0 -85 -3 -85
-15z m110 -65 c0 -47 -2 -50 -25 -50 -23 0 -25 3 -25 50 0 47 2 50 25 50 23 0
25 -3 25 -50z"/>
<path d="M2640 1900 l0 -70 58 0 c76 0 134 10 129 23 -2 6 -34 9 -80 8 l-77
-2 0 45 0 46 60 0 c33 0 60 4 60 10 0 6 -32 10 -75 10 l-75 0 0 -70z"/>
<path d="M2725 1793 c-52 -13 -72 -65 -37 -96 43 -39 169 -29 193 14 31 58
-59 105 -156 82z m117 -40 c17 -15 17 -17 2 -35 -30 -33 -144 -20 -144 17 0
35 108 49 142 18z"/>
<path d="M2347 1773 c-4 -3 -7 -26 -7 -50 l0 -43 110 0 c91 0 110 3 110 15 0
12 -17 15 -90 15 l-90 0 0 35 c0 33 -16 46 -33 28z"/>
</g>
</svg>
